<svg id="Layer_1" data-name="Layer 1" xmlns="http://www.w3.org/2000/svg" viewBox="0 0 957.52 411.95"><defs><style>.cls-1{fill:#bbe1d8;}.cls-2{fill:#020202;stroke:#f7f3f4;stroke-miterlimit:10;stroke-width:0.25px;}.cls-3{font-size:64.63px;fill:#231f20;font-family:Audrey-Normal, Audrey;}</style></defs><title>logo</title><path class="cls-1" d="M662.06,162.34V393.28L677,381.66l62-48.35L771.41,308H725.76v-8.71H831V308H785.73L743.4,341l69.51,123.25h23.86V473H704.6v-8.71h19.09l-42.33-74.91-19.3,14.94v60h27.6V473H557.28v-8.71h27V171.06h-27v-8.71Z" transform="translate(-144.87 -162.34)"/><path class="cls-2" d="M538.21,473H405.83v-8.71h27V308h-27v-8.71H511v13.49q22.82-16,65.78-16,42.74,0,62,14.94,23.24,17.84,23.24,62.25V464h27.18v8.71H556.89V464h27V374.82q0-35.48-4.77-45.86-6.85-15.15-32-15.15-24.69,0-36.1,12.86V464.25h27.18Z" transform="translate(-144.87 -162.34)"/><text class="cls-3" transform="matrix(0.98, 0.19, -0.19, 0.98, 144, 365.09)">p</text><text class="cls-3" transform="translate(192.66 374.09) rotate(8.88)">l</text><text class="cls-3" transform="translate(222.88 378.72) rotate(7.25)">a</text><text class="cls-3" transform="translate(267.66 384.23) rotate(5.58)">y</text><text class="cls-3" transform="translate(313.45 388.47) rotate(4.35)"> </text><text class="cls-3" transform="translate(343.15 390.66) rotate(3.3)">t</text><text class="cls-3" transform="translate(383.22 392.83) rotate(2.19)">r</text><text class="cls-3" transform="translate(418.46 394.12) rotate(1.15)">e</text><text class="cls-3" transform="matrix(1, 0, 0, 1, 463.41, 394.94)">k</text><text class="cls-3" transform="matrix(1, -0.02, 0.02, 1, 508.87, 394.7)"> </text><text class="cls-3" transform="translate(538.67 394.12) rotate(-1.94)">t</text><text class="cls-3" transform="translate(578.76 392.63) rotate(-3.04)">r</text><text class="cls-3" transform="translate(613.79 390.72) rotate(-4.18)">a</text><text class="cls-3" transform="translate(658.8 387.29) rotate(-5.67)">v</text><text class="cls-3" transform="translate(705.23 382.49) rotate(-7.36)">e</text><text class="cls-3" transform="translate(749.48 376.51) rotate(-8.99)">l</text></svg>